<svg width="29" height="30" viewBox="0 0 29 30" fill="none" xmlns="http://www.w3.org/2000/svg">
<path fill-rule="evenodd" clip-rule="evenodd" d="M5.20187 14.5471L8.7725 18.1178C8.90606 18.2422 9.01318 18.3923 9.08748 18.559C9.16178 18.7258 9.20173 18.9058 9.20495 19.0883C9.20817 19.2708 9.17459 19.4522 9.10622 19.6214C9.03785 19.7907 8.93609 19.9444 8.80701 20.0735C8.67792 20.2026 8.52416 20.3044 8.3549 20.3727C8.18563 20.4411 8.00433 20.4747 7.8218 20.4715C7.63928 20.4682 7.45927 20.4283 7.29252 20.354C7.12578 20.2797 6.9757 20.1726 6.85125 20.039L0.960625 14.1484L0 13.1878L0.960625 12.2271L6.85125 6.33652C7.10894 6.0964 7.44978 5.96568 7.80195 5.97189C8.15412 5.97811 8.49013 6.12077 8.73919 6.36983C8.98825 6.61889 9.13092 6.9549 9.13713 7.30707C9.14334 7.65924 9.01262 8.00008 8.7725 8.25777L5.20187 11.8284H23.1094C24.6717 11.8284 26.17 12.449 27.2747 13.5537C28.3794 14.6584 29 16.1567 29 17.719C29 19.2813 28.3794 20.7796 27.2747 21.8843C26.17 22.989 24.6717 23.6096 23.1094 23.6096H19.4844C19.1238 23.6096 18.7781 23.4664 18.5232 23.2115C18.2682 22.9566 18.125 22.6108 18.125 22.2503C18.125 21.8897 18.2682 21.544 18.5232 21.289C18.7781 21.0341 19.1238 20.8909 19.4844 20.8909H23.1094C23.9506 20.8909 24.7574 20.5567 25.3522 19.9619C25.9471 19.367 26.2812 18.5603 26.2812 17.719C26.2812 16.8778 25.9471 16.071 25.3522 15.4762C24.7574 14.8813 23.9506 14.5471 23.1094 14.5471H5.20187Z" fill="black"/>
</svg>
