<svg width="228" height="292" viewBox="0 0 228 292" fill="none" xmlns="http://www.w3.org/2000/svg">
<path d="M108.959 40.3733C109.054 40.3733 107.859 34.4298 107.732 33.9996C106.361 29.7611 101.215 22.3677 96.2114 22.3677C95.3815 22.3936 94.5662 22.5936 93.8184 22.9547C93.0707 23.3158 92.4072 23.83 91.8709 24.464C91.3346 25.0979 90.9374 25.8375 90.7052 26.6347C90.473 27.432 90.4109 28.2691 90.5229 29.0919C90.8894 32.5974 94.0444 35.593 96.8966 37.3139C100.243 39.4013 108.959 40.3733 108.959 40.3733Z" fill="#FFB38E"/>
<path d="M118.629 0.346409C113.928 2.03543 111.602 10.7355 111.745 15.197C111.745 15.5795 112.638 21.5707 112.733 21.5707H112.829C112.447 22.9411 112.048 24.407 111.65 26.0323C110.949 29.0279 110.184 32.406 109.594 36.1664C108.911 40.1947 108.464 44.2596 108.256 48.3401C108.01 52.9127 108.164 57.498 108.718 62.0435C108.724 62.0965 108.724 62.1499 108.718 62.2029C108.112 60.8803 106.264 57.2314 106.089 56.9605C103.635 53.2319 96.7195 47.4 91.8914 48.7863C91.1002 49.0302 90.369 49.4376 89.7452 49.9822C89.1214 50.5267 88.619 51.1962 88.2705 51.9473C87.922 52.6984 87.7352 53.5144 87.7221 54.3423C87.709 55.1702 87.8701 55.9916 88.1947 56.7534C89.4694 60.0517 93.2936 62.0913 96.4964 63.0155C100.113 64.0353 108.176 62.8243 108.814 62.7287C109.504 67.3347 110.494 71.8909 111.777 76.3683C112.526 78.9815 113.371 81.5947 114.199 84.192C113.642 83.0607 113.116 82.0568 113.036 81.9293C110.582 78.2007 103.667 72.3689 98.8387 73.7551C98.0475 73.9991 97.3163 74.4065 96.6925 74.951C96.0687 75.4956 95.5663 76.1651 95.2178 76.9162C94.8693 77.6673 94.6825 78.4832 94.6694 79.3111C94.6563 80.1391 94.8174 80.9605 95.142 81.7222C96.4167 85.0047 100.241 87.0602 103.444 87.9684C106.646 88.8766 113.594 87.9684 115.41 87.7453C115.745 88.7333 116.08 89.7371 116.43 90.725C118.023 95.5053 119.744 100.286 121.21 104.97C121.736 106.564 122.182 108.284 122.644 109.942C122.15 108.938 121.704 108.093 121.625 107.982C119.187 104.237 112.255 98.4212 107.443 99.8075C106.651 100.05 105.918 100.456 105.292 101C104.667 101.544 104.162 102.213 103.812 102.964C103.462 103.715 103.274 104.532 103.26 105.361C103.246 106.189 103.406 107.012 103.731 107.775C105.005 111.057 108.845 113.113 112.048 114.021C115.251 114.929 121.513 114.132 123.68 113.83C124.11 115.535 124.541 117.255 124.875 118.928C125.066 120.076 125.337 121.159 125.481 122.338L125.959 125.748C126.182 127.931 126.437 130.178 126.596 132.313C126.724 133.811 126.819 135.229 126.915 136.647C126.421 135.054 125.321 131.756 125.321 131.501C123.557 127.995 120.924 124.999 117.673 122.801C117.492 122.401 117.279 122.018 117.036 121.653C116.581 120.959 115.986 120.367 115.289 119.917C114.591 119.467 113.807 119.169 112.987 119.041C112.167 118.913 111.329 118.959 110.528 119.176C109.726 119.393 108.98 119.775 108.336 120.299C104.559 123.565 105.499 132.52 107.236 136.631C107.332 136.87 108.829 139.388 109.658 140.95L107.634 138.432C106.232 136.727 104.798 135.07 103.268 133.285C102.482 132.457 101.702 131.612 100.926 130.752C100.161 129.891 99.253 129.079 98.4085 128.218C96.4008 126.29 94.2816 124.426 92.0349 122.609C93.5327 121.382 98.7431 116.985 100.241 113.989C101.739 110.993 102.806 106.803 101.245 103.632C100.902 102.877 100.404 102.204 99.7831 101.654C99.1626 101.105 98.4335 100.692 97.6432 100.443C96.8529 100.193 96.0189 100.113 95.1955 100.206C94.372 100.3 93.5775 100.566 92.8634 100.987C88.6249 103.632 88.1947 112.635 89.2942 116.921C89.2942 117.192 90.5052 120.219 91.1585 121.86C89.8359 120.761 88.5293 119.677 87.159 118.674C83.2073 115.63 79.1919 112.666 75.049 109.687L71.3364 106.93C71.8622 106.5 78.1721 101.401 79.8611 98.0388C81.359 95.0591 82.4265 90.8525 80.865 87.6975C80.5235 86.9396 80.026 86.2622 79.405 85.7096C78.784 85.157 78.0534 84.7416 77.261 84.4905C76.4685 84.2394 75.632 84.1582 74.8061 84.2523C73.9802 84.3464 73.1833 84.6136 72.4677 85.0365C68.2451 87.6975 67.8149 96.6844 68.9144 100.971C68.994 101.289 70.6353 105.623 71.1133 106.707C68.3885 104.683 65.6957 102.644 63.1462 100.525C59.6592 97.6694 56.3593 94.5931 53.267 91.3146C53.506 91.1234 60.1187 85.8173 61.8396 82.3914C63.3374 79.4118 64.405 75.2051 62.8435 72.0342C62.4985 71.2835 61.9999 70.6133 61.38 70.0671C60.7601 69.5209 60.0325 69.1107 59.2443 68.8629C58.456 68.6152 57.6246 68.5355 56.8037 68.6288C55.9827 68.7222 55.1905 68.9867 54.478 69.4051C50.2395 72.0661 49.8252 81.0689 50.9088 85.3393C50.9884 85.6261 52.2313 88.9404 52.8687 90.486L52.6296 90.6453C49.6027 87.2608 46.8831 83.6134 44.5032 79.7464C43.1807 77.6431 42.0175 75.5398 40.934 73.4842C42.2724 72.6238 48.3115 68.704 50.2077 65.7084C52.1038 62.7127 53.5538 58.8407 52.3428 55.5264C52.0836 54.7479 51.6651 54.0318 51.114 53.4238C50.563 52.8158 49.8913 52.3292 49.1419 51.995C48.3925 51.6608 47.5817 51.4862 46.7611 51.4824C45.9406 51.4787 45.1282 51.6458 44.3757 51.9731C39.8823 54.1402 38.4642 63.127 39.0856 67.4611C39.0856 67.7001 39.723 70.1062 40.201 71.843C39.723 70.9188 39.2131 69.9469 38.7828 69.0386C37.1894 65.6446 35.835 62.4259 34.7196 59.5737C34.0982 57.9803 33.5564 56.3869 33.1262 55.0484C33.9867 53.5347 37.4125 47.3363 37.7312 43.8945C38.0499 40.4527 37.54 36.262 34.9427 33.8719C34.3499 33.2895 33.6414 32.8383 32.8629 32.5475C32.0845 32.2567 31.2536 32.1329 30.4242 32.184C29.5948 32.2351 28.7854 32.46 28.0486 32.8441C27.3117 33.2282 26.6639 33.763 26.147 34.4137C23.1674 38.4131 26.0196 46.9698 28.6009 50.6028C28.824 50.9215 32.8713 55.383 32.9191 55.383V55.2874C33.3652 56.6418 33.8433 58.0759 34.4169 59.6534C35.4845 62.5375 36.7114 65.7881 38.2889 69.2139C39.9441 72.9533 41.8169 76.5925 43.8977 80.1129C46.218 84.0593 48.8842 87.792 51.8648 91.2668L51.9764 91.3783C50.7335 90.6135 47.1961 88.5898 46.8933 88.4624C42.7983 86.6937 33.8273 85.7058 30.5449 89.4662C30.0173 90.1072 29.6307 90.8521 29.4102 91.6525C29.1896 92.4528 29.1401 93.2906 29.2649 94.1113C29.3896 94.9321 29.6859 95.7174 30.1343 96.416C30.5827 97.1147 31.1732 97.711 31.8674 98.1663C34.7356 100.206 39.0697 99.7597 42.2406 98.8037C45.8258 97.6723 51.8011 92.2069 52.3588 91.7767C55.4755 95.2395 58.8184 98.4919 62.3654 101.512C64.4209 103.281 66.5402 105.002 68.7391 106.707C67.6396 106.086 66.6517 105.528 66.5083 105.464C62.4132 103.695 53.4582 102.708 50.1758 106.468C49.645 107.107 49.2553 107.851 49.0321 108.651C48.809 109.451 48.7574 110.289 48.8807 111.111C49.0041 111.932 49.2996 112.718 49.748 113.417C50.1963 114.117 50.7874 114.713 51.4824 115.168C54.3665 117.208 58.6846 116.761 61.8715 115.805C65.0583 114.849 70.3325 110.228 71.7188 109.002L74.2045 110.946C78.2199 114.021 82.1716 117.064 86.0755 120.171C87.4299 121.271 88.7205 122.386 90.0271 123.518C89.0552 122.96 88.2266 122.498 88.0832 122.434C83.9881 120.681 75.0331 119.677 71.7506 123.454C71.2199 124.093 70.8302 124.837 70.607 125.637C70.3838 126.437 70.3322 127.275 70.4556 128.096C70.579 128.918 70.8745 129.704 71.3228 130.403C71.7712 131.102 72.3622 131.699 73.0573 132.154C75.9413 134.193 80.2595 133.747 83.4463 132.775C86.6332 131.803 91.4134 127.644 93.0068 126.21C94.2975 127.39 95.6041 128.585 96.8151 129.796C97.6118 130.64 98.4085 131.389 99.2052 132.297L101.484 134.895C102.886 136.584 104.32 138.32 105.643 140.009C106.567 141.189 107.427 142.32 108.304 143.451C106.965 142.352 104.304 140.264 104.049 140.089C100.273 137.715 91.5728 135.388 87.7486 138.607C87.1314 139.162 86.6378 139.84 86.2999 140.597C85.962 141.355 85.7874 142.175 85.7874 143.005C85.7874 143.835 85.962 144.655 86.2999 145.413C86.6378 146.17 87.1314 146.848 87.7486 147.403C90.2821 149.857 94.6162 150.112 97.9146 149.602C101.532 149.044 108.096 144.822 108.909 144.232C110.343 146.112 111.714 147.961 112.988 149.713C117.402 155.816 120.844 161.074 123.202 164.771L123.441 165.154L126.5 163.672L126.022 162.939C123.553 159.258 119.967 154.031 115.362 147.961C113.928 146.033 112.335 144.025 110.694 141.953C112.398 140.092 113.994 138.134 115.474 136.09C118.98 137.46 126.293 137.508 127.233 137.508C127.393 139.882 127.52 142.176 127.6 144.344C127.919 151.88 127.887 158.158 127.823 162.54C127.823 162.716 127.823 162.875 127.823 163.05L131.185 161.457C131.185 157.091 131.01 151.195 130.58 144.216C130.42 141.826 130.213 139.261 129.99 136.631C130.914 136.408 138.515 134.448 141.383 132.154C143.996 130.082 146.737 126.704 146.641 123.183C146.648 122.353 146.479 121.531 146.147 120.771C145.815 120.01 145.326 119.328 144.713 118.769C144.1 118.21 143.375 117.786 142.588 117.525C141.8 117.265 140.966 117.173 140.14 117.255C135.169 117.893 131.026 125.876 130.213 130.274C130.213 130.529 129.942 133.46 129.847 135.197C129.751 134.13 129.655 133.094 129.544 132.01C129.321 129.827 129.034 127.66 128.747 125.318C128.556 124.203 128.365 123.055 128.189 121.908C128.014 120.761 127.711 119.582 127.472 118.419C126.867 115.694 126.134 112.969 125.321 110.244C127.233 110.053 134.021 109.256 136.921 107.583C139.821 105.91 143.024 103.01 143.47 99.5048C143.601 98.686 143.558 97.8488 143.344 97.0477C143.13 96.2466 142.75 95.4995 142.229 94.8548C141.708 94.2101 141.056 93.6824 140.318 93.3058C139.579 92.9292 138.769 92.7123 137.941 92.669C132.938 92.5415 127.616 99.8075 126.15 104.03C126.054 104.285 125.337 107.424 124.987 109.161C124.477 107.567 123.999 105.894 123.393 104.253C121.8 99.4729 119.999 94.8042 118.247 90.0717L116.653 85.7217C117.338 85.7217 125.417 84.8931 128.667 83.0129C131.552 81.4195 134.77 78.4398 135.216 74.9343C135.35 74.1151 135.309 73.2771 135.096 72.4749C134.883 71.6728 134.503 70.9246 133.981 70.2793C133.459 69.6341 132.807 69.1063 132.067 68.7305C131.327 68.3547 130.516 68.1393 129.687 68.0985C124.684 67.971 119.362 75.2529 117.896 79.4596C117.784 79.7782 116.765 84.2398 116.558 85.4667C115.41 82.2799 114.295 79.0931 113.371 75.9062C112.04 71.5992 110.976 67.2143 110.184 62.7765C110.503 62.7765 118.948 61.9798 122.278 60.0677C125.162 58.3946 128.381 55.4786 128.827 51.9731C128.958 51.1531 128.914 50.3147 128.699 49.5125C128.485 48.7103 128.103 47.9624 127.58 47.3175C127.057 46.6726 126.404 46.1451 125.663 45.7695C124.923 45.3939 124.111 45.1785 123.282 45.1374C118.294 45.0099 112.972 52.2918 111.506 56.4984C111.411 56.7693 110.63 60.227 110.295 61.8682H110.009C109.35 57.38 109.094 52.842 109.244 48.3083C109.244 45.8225 109.483 43.4324 109.722 41.1219C111.315 41.1219 118.565 41.1219 121.752 39.7516C124.939 38.3813 128.317 35.8637 129.146 32.4378C129.367 31.6353 129.416 30.7952 129.289 29.9724C129.163 29.1496 128.865 28.3627 128.414 27.6633C127.962 26.9638 127.368 26.3676 126.671 25.9135C125.973 25.4595 125.188 25.1578 124.365 25.0284C119.41 24.3592 113.323 31.0037 111.411 35.0192C111.299 35.2422 110.487 37.5846 109.913 39.3055C110.025 38.2538 110.136 37.1862 110.279 36.1186C110.789 32.3741 111.475 28.9801 112.112 25.9686C112.494 24.2636 112.861 22.7817 113.227 21.2998C114.821 20.5031 121.067 17.2366 123.218 14.5756C125.369 11.9146 127.249 8.10635 126.405 4.68051C126.229 3.85584 125.879 3.07826 125.378 2.39999C124.878 1.72171 124.237 1.15842 123.501 0.747924C122.765 0.337428 121.949 0.0892269 121.108 0.0199746C120.268 -0.0492777 119.423 0.0620236 118.629 0.346409Z" fill="#FFB38E"/>
<path d="M28.3167 77.3718C32.2206 77.2125 40.0283 73.1971 40.0443 73.1971C40.0602 73.1971 35.8376 68.863 35.5349 68.608C32.0453 65.8355 23.6639 62.5052 19.5051 65.2778C18.8273 65.7556 18.2577 66.3708 17.8332 67.0832C17.4087 67.7956 17.1388 68.5894 17.0412 69.4129C16.9435 70.2364 17.0202 71.0713 17.2662 71.8632C17.5123 72.6552 17.9222 73.3865 18.4694 74.0097C20.7161 76.7344 25.0343 77.4993 28.3167 77.3718Z" fill="#FFB38E"/>
<g opacity="0.5">
<path d="M108.959 40.3738C109.054 40.3738 107.859 34.4303 107.732 34.0001C106.361 29.7616 101.215 22.3682 96.2114 22.3682C95.3815 22.3941 94.5662 22.594 93.8184 22.9552C93.0707 23.3163 92.4072 23.8305 91.8709 24.4645C91.3346 25.0984 90.9374 25.838 90.7052 26.6352C90.473 27.4325 90.4109 28.2696 90.5229 29.0924C90.8894 32.5979 94.0444 35.5935 96.8966 37.3144C100.243 39.4018 108.959 40.3738 108.959 40.3738Z" fill="white"/>
<path d="M118.631 0.346897C113.93 2.03592 111.604 10.736 111.747 15.1975C111.747 15.58 112.64 21.5712 112.735 21.5712H112.831C112.448 22.9415 112.05 24.4075 111.652 26.0328C110.951 29.0284 110.186 32.4064 109.596 36.1669C108.913 40.1952 108.466 44.26 108.258 48.3406C108.012 52.9131 108.166 57.4985 108.72 62.044C108.726 62.097 108.726 62.1504 108.72 62.2033C108.114 60.8808 106.266 57.2319 106.091 56.961C103.637 53.2324 96.7214 47.4005 91.8934 48.7868C91.1021 49.0307 90.3709 49.4381 89.7471 49.9827C89.1234 50.5272 88.621 51.1967 88.2725 51.9478C87.924 52.6989 87.7371 53.5149 87.7241 54.3428C87.711 55.1707 87.872 55.9921 88.1967 56.7539C89.4714 60.0522 93.2956 62.0918 96.4984 63.016C100.115 64.0358 108.178 62.8248 108.815 62.7292C109.506 67.3352 110.496 71.8914 111.779 76.3688C112.528 78.982 113.373 81.5952 114.201 84.1925C113.644 83.0612 113.118 82.0573 113.038 81.9298C110.584 78.2012 103.669 72.3693 98.8407 73.7556C98.0494 73.9995 97.3182 74.407 96.6944 74.9515C96.0707 75.4961 95.5683 76.1656 95.2197 76.9167C94.8712 77.6678 94.6844 78.4837 94.6714 79.3116C94.6583 80.1396 94.8193 80.961 95.144 81.7227C96.4187 85.0052 100.243 87.0606 103.446 87.9689C106.648 88.8771 113.596 87.9689 115.412 87.7458C115.747 88.7338 116.081 89.7376 116.432 90.7255C118.025 95.5058 119.746 100.286 121.212 104.971C121.738 106.564 122.184 108.285 122.646 109.942C122.152 108.938 121.706 108.094 121.627 107.982C119.189 104.238 112.257 98.4217 107.445 99.808C106.652 100.05 105.92 100.456 105.294 101C104.668 101.544 104.164 102.213 103.814 102.965C103.464 103.716 103.276 104.532 103.262 105.361C103.248 106.19 103.408 107.012 103.732 107.775C105.007 111.057 108.847 113.113 112.05 114.021C115.253 114.93 121.515 114.133 123.682 113.83C124.112 115.535 124.543 117.256 124.877 118.929C125.068 120.076 125.339 121.16 125.483 122.339L125.961 125.749C126.184 127.932 126.439 130.179 126.598 132.314C126.725 133.812 126.821 135.23 126.917 136.648C126.423 135.054 125.323 131.756 125.323 131.501C123.559 127.995 120.926 125 117.675 122.801C117.494 122.402 117.281 122.018 117.038 121.654C116.583 120.959 115.988 120.368 115.291 119.918C114.593 119.468 113.809 119.169 112.989 119.041C112.169 118.914 111.331 118.96 110.53 119.176C109.728 119.393 108.981 119.776 108.337 120.299C104.561 123.566 105.501 132.521 107.238 136.632C107.334 136.871 108.831 139.388 109.66 140.95L107.636 138.432C106.234 136.727 104.8 135.07 103.27 133.286C102.484 132.457 101.704 131.613 100.928 130.752C100.163 129.892 99.255 129.079 98.4105 128.219C96.4028 126.291 94.2835 124.426 92.0368 122.61C93.5346 121.383 98.7451 116.985 100.243 113.989C101.741 110.994 102.808 106.803 101.247 103.632C100.904 102.878 100.405 102.204 99.785 101.655C99.1645 101.105 98.4355 100.692 97.6451 100.443C96.8548 100.194 96.0209 100.113 95.1974 100.207C94.374 100.301 93.5794 100.566 92.8654 100.987C88.6269 103.632 88.1967 112.635 89.2961 116.921C89.2961 117.192 90.5071 120.22 91.1604 121.861C89.8379 120.761 88.5313 119.678 87.1609 118.674C83.2093 115.631 79.1939 112.667 75.051 109.687L71.3383 106.931C71.8641 106.5 78.1741 101.401 79.8631 98.0393C81.3609 95.0596 82.4285 90.853 80.8669 87.698C80.5255 86.9401 80.028 86.2627 79.407 85.7101C78.786 85.1575 78.0554 84.7421 77.2629 84.491C76.4705 84.2399 75.634 84.1587 74.8081 84.2528C73.9821 84.3469 73.1853 84.6141 72.4696 85.037C68.2471 87.698 67.8169 96.6849 68.9163 100.971C68.996 101.29 70.6372 105.624 71.1152 106.707C68.3905 104.684 65.6976 102.644 63.1481 100.525C59.6611 97.6699 56.3613 94.5936 53.269 91.3151C53.508 91.1239 60.1207 85.8178 61.8415 82.3919C63.3394 79.4122 64.407 75.2056 62.8454 72.0347C62.5004 71.2839 62.0019 70.6138 61.3819 70.0676C60.762 69.5214 60.0345 69.1112 59.2462 68.8634C58.458 68.6157 57.6266 68.5359 56.8056 68.6293C55.9847 68.7227 55.1924 68.9872 54.48 69.4056C50.2415 72.0666 49.8272 81.0694 50.9107 85.3398C50.9904 85.6266 52.2332 88.9409 52.8706 90.4865L52.6316 90.6458C49.6046 87.2613 46.8851 83.6139 44.5052 79.7468C43.1826 77.6435 42.0194 75.5402 40.9359 73.4847C42.2744 72.6243 48.3134 68.7045 50.2096 65.7089C52.1058 62.7132 53.5558 58.8412 52.3448 55.5269C52.0856 54.7484 51.6671 54.0323 51.116 53.4243C50.5649 52.8163 49.8933 52.3297 49.1439 51.9955C48.3945 51.6612 47.5836 51.4867 46.7631 51.4829C45.9425 51.4792 45.1302 51.6463 44.3777 51.9736C39.8843 54.1407 38.4661 63.1275 39.0876 67.4616C39.0876 67.7006 39.7249 70.1067 40.2029 71.8435C39.7249 70.9193 39.215 69.9474 38.7848 69.0391C37.1914 65.6451 35.837 62.4264 34.7216 59.5742C34.1002 57.9808 33.5584 56.3874 33.1282 55.0489C33.9886 53.5352 37.4145 47.3368 37.7331 43.895C38.0518 40.4532 37.5419 36.2625 34.9447 33.8724C34.3519 33.29 33.6433 32.8388 32.8649 32.548C32.0865 32.2572 31.2556 32.1334 30.4262 32.1845C29.5968 32.2355 28.7874 32.4604 28.0505 32.8446C27.3137 33.2287 26.6658 33.7634 26.149 34.4141C23.1693 38.4136 26.0215 46.9703 28.6029 50.6033C28.8259 50.9219 32.8732 55.3835 32.921 55.3835V55.2879C33.3672 56.6423 33.8452 58.0764 34.4188 59.6539C35.4864 62.538 36.7134 65.7885 38.2908 69.2144C39.9461 72.9538 41.8189 76.593 43.8997 80.1134C46.22 84.0598 48.8861 87.7925 51.8668 91.2673L51.9783 91.3788C50.7354 90.614 47.198 88.5903 46.8953 88.4628C42.8002 86.6942 33.8293 85.7062 30.5468 89.4667C30.0193 90.1077 29.6326 90.8526 29.4121 91.6529C29.1916 92.4533 29.1421 93.2911 29.2668 94.1118C29.3916 94.9326 29.6878 95.7179 30.1362 96.4165C30.5846 97.1152 31.1752 97.7115 31.8694 98.1667C34.7375 100.206 39.0716 99.7602 42.2425 98.8042C45.8277 97.6728 51.803 92.2074 52.3607 91.7772C55.4774 95.24 58.8203 98.4924 62.3674 101.513C64.4229 103.282 66.5421 105.003 68.741 106.707C67.6416 106.086 66.6537 105.528 66.5103 105.465C62.4152 103.696 53.4602 102.708 50.1777 106.468C49.647 107.107 49.2573 107.851 49.0341 108.651C48.8109 109.451 48.7593 110.29 48.8827 111.111C49.006 111.933 49.3016 112.719 49.7499 113.418C50.1983 114.117 50.7893 114.714 51.4843 115.169C54.3684 117.208 58.6866 116.762 61.8734 115.806C65.0603 114.85 70.3345 110.229 71.7207 109.002L74.2065 110.946C78.2219 114.021 82.1735 117.065 86.0774 120.172C87.4318 121.271 88.7225 122.387 90.0291 123.518C89.0571 122.96 88.2285 122.498 88.0851 122.435C83.99 120.682 75.035 119.678 71.7526 123.454C71.2219 124.093 70.8321 124.837 70.609 125.637C70.3858 126.437 70.3342 127.276 70.4576 128.097C70.5809 128.918 70.8765 129.704 71.3248 130.404C71.7732 131.103 72.3642 131.699 73.0592 132.154C75.9433 134.194 80.2615 133.748 83.4483 132.776C86.6351 131.804 91.4154 127.645 93.0088 126.211C94.2995 127.39 95.6061 128.585 96.8171 129.796C97.6138 130.641 98.4105 131.39 99.2072 132.298L101.486 134.895C102.888 136.584 104.322 138.321 105.645 140.01C106.569 141.189 107.429 142.32 108.306 143.452C106.967 142.352 104.306 140.265 104.051 140.09C100.275 137.715 91.5747 135.389 87.7505 138.608C87.1333 139.162 86.6397 139.84 86.3019 140.598C85.964 141.356 85.7893 142.176 85.7893 143.006C85.7893 143.835 85.964 144.655 86.3019 145.413C86.6397 146.171 87.1333 146.849 87.7505 147.403C90.284 149.857 94.6181 150.112 97.9165 149.602C101.534 149.045 108.098 144.822 108.911 144.232C110.345 146.113 111.715 147.961 112.99 149.714C117.404 155.817 120.846 161.075 123.204 164.772L123.443 165.154L126.502 163.672L126.024 162.939C123.555 159.258 119.969 154.032 115.364 147.961C113.93 146.033 112.337 144.025 110.696 141.954C112.4 140.093 113.996 138.135 115.476 136.09C118.981 137.46 126.295 137.508 127.235 137.508C127.395 139.882 127.522 142.177 127.602 144.344C127.921 151.881 127.889 158.159 127.825 162.541C127.825 162.716 127.825 162.875 127.825 163.051L131.187 161.457C131.187 157.091 131.012 151.196 130.582 144.217C130.422 141.826 130.215 139.261 129.992 136.632C130.916 136.409 138.517 134.449 141.385 132.154C143.998 130.083 146.739 126.705 146.643 123.183C146.65 122.354 146.481 121.532 146.149 120.771C145.817 120.011 145.328 119.329 144.715 118.77C144.102 118.21 143.377 117.787 142.59 117.526C141.802 117.265 140.968 117.173 140.142 117.256C135.171 117.893 131.028 125.876 130.215 130.274C130.215 130.529 129.944 133.461 129.849 135.198C129.753 134.13 129.657 133.094 129.546 132.011C129.323 129.828 129.036 127.661 128.749 125.319C128.558 124.203 128.367 123.056 128.191 121.909C128.016 120.761 127.713 119.582 127.474 118.419C126.869 115.694 126.136 112.97 125.323 110.245C127.235 110.054 134.023 109.257 136.923 107.584C139.823 105.911 143.026 103.011 143.472 99.5053C143.603 98.6865 143.56 97.8493 143.346 97.0482C143.132 96.2471 142.752 95.5 142.231 94.8553C141.709 94.2106 141.058 93.6829 140.32 93.3063C139.581 92.9297 138.771 92.7128 137.943 92.6695C132.94 92.542 127.618 99.808 126.152 104.031C126.056 104.286 125.339 107.425 124.989 109.161C124.479 107.568 124.001 105.895 123.395 104.254C121.802 99.4734 120.001 94.8047 118.249 90.0722L116.655 85.7222C117.34 85.7222 125.419 84.8936 128.669 83.0134C131.554 81.42 134.772 78.4403 135.218 74.9348C135.352 74.1156 135.311 73.2776 135.098 72.4754C134.885 71.6732 134.505 70.9251 133.983 70.2798C133.461 69.6346 132.809 69.1068 132.069 68.731C131.329 68.3552 130.518 68.1398 129.689 68.099C124.686 67.9715 119.364 75.2534 117.898 79.4601C117.786 79.7787 116.767 84.2403 116.559 85.4672C115.412 82.2804 114.297 79.0935 113.373 75.9067C112.042 71.5997 110.978 67.2148 110.186 62.777C110.505 62.777 118.95 61.9803 122.28 60.0682C125.164 58.3951 128.383 55.4791 128.829 51.9736C128.96 51.1536 128.916 50.3152 128.701 49.513C128.487 48.7108 128.105 47.9629 127.582 47.318C127.059 46.6731 126.406 46.1456 125.665 45.77C124.925 45.3943 124.113 45.179 123.284 45.1379C118.296 45.0104 112.974 52.2923 111.508 56.4989C111.413 56.7698 110.632 60.2275 110.297 61.8687H110.011C109.352 57.3805 109.096 52.8425 109.246 48.3087C109.246 45.823 109.485 43.4329 109.724 41.1224C111.317 41.1224 118.567 41.1224 121.754 39.7521C124.941 38.3818 128.319 35.8642 129.147 32.4383C129.369 31.6358 129.418 30.7957 129.291 29.9729C129.165 29.1501 128.867 28.3632 128.416 27.6638C127.964 26.9643 127.37 26.3681 126.673 25.914C125.975 25.4599 125.189 25.1583 124.367 25.0289C119.412 24.3597 113.325 31.0042 111.413 35.0196C111.301 35.2427 110.489 37.5851 109.915 39.3059C110.026 38.2543 110.138 37.1867 110.281 36.1191C110.791 32.3746 111.476 28.9806 112.114 25.969C112.496 24.2641 112.863 22.7822 113.229 21.3003C114.823 20.5036 121.069 17.2371 123.22 14.5761C125.371 11.9151 127.251 8.10684 126.407 4.68099C126.231 3.85633 125.881 3.07875 125.38 2.40047C124.88 1.7222 124.239 1.15891 123.503 0.748413C122.766 0.337916 121.951 0.0897152 121.11 0.0204629C120.27 -0.0487895 119.425 0.0625119 118.631 0.346897Z" fill="white"/>
<path d="M28.3148 77.3723C32.2186 77.213 40.0264 73.1975 40.0423 73.1975C40.0582 73.1975 35.8357 68.8634 35.5329 68.6085C32.0434 65.836 23.662 62.5057 19.5032 65.2783C18.8254 65.7561 18.2557 66.3713 17.8312 67.0837C17.4067 67.7961 17.1369 68.5898 17.0392 69.4134C16.9415 70.2369 17.0182 71.0718 17.2643 71.8637C17.5103 72.6557 17.9203 73.387 18.4674 74.0102C20.7142 76.7349 25.0323 77.4998 28.3148 77.3723Z" fill="white"/>
</g>
<path d="M73.9027 175.128C73.9027 175.128 97.5968 118.02 110.854 120.506C124.111 122.992 88.116 211.554 88.116 211.554C88.116 211.554 129.8 132.919 158.226 132.919C186.653 132.919 147.805 219.824 111.81 248.792C111.81 248.792 168.647 187.541 201.822 200.798C234.997 214.056 135.488 276.119 135.488 276.119C135.488 276.119 193.281 257.906 186.653 271.976C180.024 286.046 162.066 288.532 162.066 288.532L227.397 291.846H0L51.1646 286.875C51.1646 286.875 -1.89617 260.392 12.2852 249.621C26.4667 238.849 57.7614 262.033 57.7614 262.033C57.7614 262.033 3.76046 202.44 14.1814 180.1C24.6024 157.76 71.0345 220.652 71.0345 220.652C71.0345 220.652 33.1271 140.376 40.7596 126.29C48.3921 112.204 73.9027 175.128 73.9027 175.128Z" fill="#FFB38E"/>
<path opacity="0.4" d="M73.9027 175.128C73.9027 175.128 97.5968 118.02 110.854 120.506C124.111 122.992 88.116 211.554 88.116 211.554C88.116 211.554 129.8 132.919 158.226 132.919C186.653 132.919 147.805 219.824 111.81 248.792C111.81 248.792 168.647 187.541 201.822 200.798C234.997 214.056 135.488 276.119 135.488 276.119C135.488 276.119 193.281 257.906 186.653 271.976C180.024 286.046 162.066 288.532 162.066 288.532L227.397 291.846H0L51.1646 286.875C51.1646 286.875 -1.89617 260.392 12.2852 249.621C26.4667 238.849 57.7614 262.033 57.7614 262.033C57.7614 262.033 3.76046 202.44 14.1814 180.1C24.6024 157.76 71.0345 220.652 71.0345 220.652C71.0345 220.652 33.1271 140.376 40.7596 126.29C48.3921 112.204 73.9027 175.128 73.9027 175.128Z" fill="white"/>
<path d="M66.3318 178.14C87.1737 239.725 87.1737 283.305 87.1737 283.305C87.1737 283.305 62.5395 284.261 36.9492 265.316" stroke="#263238" stroke-linecap="round" stroke-linejoin="round"/>
<path d="M76.7539 211.3C81.0436 192.889 86.7436 174.836 93.8035 157.299" stroke="#263238" stroke-linecap="round" stroke-linejoin="round"/>
<path d="M138.338 175.303L85.2775 253.938C85.2775 253.938 49.2663 223.663 36.9492 206.566" stroke="#263238" stroke-linecap="round" stroke-linejoin="round"/>
<path d="M86.2188 272.884C86.2188 272.884 142.116 246.354 164.87 231.201" stroke="#263238" stroke-linecap="round" stroke-linejoin="round"/>
</svg>
