<svg width="108" height="303" viewBox="0 0 108 303" fill="none" xmlns="http://www.w3.org/2000/svg">
<path d="M113.101 41.908C113.2 41.908 111.96 35.7386 111.828 35.292C110.405 30.8923 105.063 23.2178 99.8692 23.2178C99.0077 23.2447 98.1614 23.4522 97.3853 23.8271C96.6091 24.2019 95.9203 24.7357 95.3636 25.3938C94.8069 26.0518 94.3947 26.8195 94.1537 27.6471C93.9126 28.4746 93.8482 29.3436 93.9644 30.1977C94.3449 33.8365 97.6198 36.946 100.58 38.7323C104.054 40.899 113.101 41.908 113.101 41.908Z" fill="#FFB38E"/>
<path d="M123.141 0.35958C118.262 2.11282 115.847 11.1436 115.996 15.7748C115.996 16.1718 116.922 22.3908 117.021 22.3908H117.12C116.723 23.8133 116.31 25.335 115.896 27.022C115.169 30.1316 114.375 33.6381 113.763 37.5415C113.053 41.7229 112.589 45.9423 112.373 50.178C112.118 54.9244 112.278 59.6841 112.853 64.4025C112.859 64.4574 112.859 64.5129 112.853 64.5678C112.224 63.195 110.306 59.4074 110.124 59.1262C107.577 55.2558 100.398 49.2022 95.3867 50.6412C94.5654 50.8944 93.8064 51.3173 93.1589 51.8825C92.5114 52.4478 91.9899 53.1428 91.6281 53.9224C91.2664 54.7021 91.0724 55.549 91.0589 56.4084C91.0453 57.2678 91.2124 58.1205 91.5494 58.9112C92.8726 62.3349 96.8422 64.4521 100.167 65.4114C103.921 66.47 112.291 65.2129 112.952 65.1137C113.669 69.8949 114.697 74.6243 116.029 79.2719C116.806 81.9845 117.683 84.697 118.543 87.393C117.964 86.2187 117.418 85.1767 117.335 85.0443C114.788 81.174 107.61 75.1204 102.598 76.5593C101.777 76.8125 101.018 77.2355 100.37 77.8007C99.7228 78.366 99.2013 79.061 98.8395 79.8406C98.4778 80.6203 98.2839 81.4672 98.2703 82.3266C98.2568 83.186 98.4239 84.0387 98.7609 84.8294C100.084 88.2366 104.054 90.3702 107.378 91.313C110.703 92.2558 117.914 91.313 119.8 91.0815C120.147 92.107 120.494 93.149 120.858 94.1745C122.512 99.1365 124.299 104.098 125.82 108.961C126.366 110.615 126.829 112.402 127.309 114.122C126.796 113.08 126.333 112.203 126.25 112.087C123.72 108.2 116.525 102.163 111.53 103.602C110.707 103.854 109.946 104.275 109.297 104.84C108.648 105.404 108.124 106.099 107.761 106.879C107.397 107.659 107.202 108.506 107.187 109.367C107.173 110.227 107.339 111.08 107.676 111.872C108.999 115.279 112.985 117.413 116.31 118.356C119.634 119.299 126.135 118.472 128.384 118.157C128.831 119.927 129.277 121.714 129.625 123.45C129.823 124.641 130.104 125.766 130.253 126.99L130.749 130.529C130.981 132.795 131.245 135.128 131.411 137.344C131.543 138.899 131.642 140.371 131.742 141.843C131.229 140.189 130.088 136.765 130.088 136.5C128.257 132.861 125.523 129.752 122.148 127.469C121.961 127.055 121.739 126.657 121.487 126.279C121.015 125.558 120.397 124.944 119.673 124.477C118.949 124.009 118.135 123.7 117.284 123.567C116.433 123.434 115.563 123.482 114.731 123.707C113.9 123.932 113.124 124.329 112.456 124.873C108.536 128.263 109.512 137.559 111.315 141.826C111.414 142.074 112.969 144.688 113.829 146.309L111.728 143.695C110.273 141.925 108.784 140.205 107.196 138.353C106.38 137.493 105.57 136.616 104.765 135.723C103.971 134.83 103.028 133.986 102.152 133.093C100.068 131.092 97.8677 129.157 95.5356 127.271C97.0903 125.997 102.499 121.432 104.054 118.323C105.608 115.213 106.717 110.863 105.096 107.572C104.739 106.789 104.222 106.089 103.578 105.519C102.934 104.949 102.178 104.52 101.357 104.261C100.537 104.003 99.6711 103.919 98.8164 104.016C97.9616 104.114 97.1369 104.39 96.3957 104.826C91.996 107.572 91.5494 116.917 92.6907 121.366C92.6907 121.647 93.9477 124.79 94.6259 126.494C93.2531 125.352 91.8968 124.228 90.4743 123.186C86.3724 120.026 82.2043 116.95 77.9039 113.857L74.0501 110.996C74.5959 110.549 81.1458 105.256 82.899 101.766C84.4538 98.6733 85.562 94.3068 83.941 91.0319C83.5866 90.2451 83.0702 89.542 82.4256 88.9684C81.7809 88.3947 81.0226 87.9635 80.2 87.7029C79.3774 87.4422 78.5091 87.358 77.6518 87.4556C76.7944 87.5533 75.9673 87.8307 75.2245 88.2697C70.8414 91.0318 70.3948 100.36 71.536 104.81C71.6187 105.14 73.3224 109.639 73.8186 110.764C70.9902 108.663 68.195 106.546 65.5486 104.347C61.929 101.383 58.5037 98.1896 55.2938 94.7864C55.5419 94.588 62.406 89.0801 64.1923 85.524C65.747 82.431 66.8552 78.0645 65.2343 74.773C64.8762 73.9937 64.3587 73.2981 63.7152 72.7311C63.0717 72.1641 62.3165 71.7383 61.4983 71.4811C60.6801 71.224 59.8171 71.1412 58.9649 71.2382C58.1127 71.3351 57.2904 71.6096 56.5508 72.0439C52.1512 74.8061 51.7211 84.1512 52.8458 88.5839C52.9285 88.8816 54.2187 92.322 54.8803 93.9264L54.6322 94.0917C51.4901 90.5785 48.6672 86.7924 46.1968 82.7784C44.8239 80.5951 43.6165 78.4118 42.4918 76.2782C43.8812 75.385 50.1498 71.3162 52.1181 68.2066C54.0863 65.0971 55.5915 61.0779 54.3344 57.6376C54.0654 56.8294 53.631 56.0861 53.0589 55.455C52.4869 54.8239 51.7897 54.3188 51.0118 53.9719C50.2339 53.6249 49.3923 53.4437 48.5405 53.4398C47.6888 53.4359 46.8455 53.6094 46.0644 53.9492C41.4002 56.1986 39.9281 65.5272 40.5732 70.026C40.5732 70.2741 41.2348 72.7717 41.731 74.5745C41.2348 73.6152 40.7055 72.6063 40.2589 71.6635C38.6049 68.1405 37.199 64.7994 36.0412 61.8388C35.3961 60.1848 34.8338 58.5308 34.3872 57.1414C35.2804 55.5701 38.8365 49.136 39.1673 45.5634C39.4981 41.9908 38.9688 37.6407 36.2728 35.1597C35.6575 34.5552 34.9219 34.0869 34.1139 33.785C33.3059 33.4832 32.4434 33.3546 31.5825 33.4076C30.7216 33.4607 29.8814 33.6941 29.1165 34.0928C28.3516 34.4916 27.6791 35.0466 27.1427 35.7221C24.0497 39.8736 27.0104 48.7556 29.6898 52.5267C29.9214 52.8575 34.1226 57.4887 34.1722 57.4887V57.3895C34.6353 58.7954 35.1315 60.284 35.7269 61.9215C36.8351 64.9152 38.1087 68.2894 39.7462 71.8455C41.4643 75.727 43.4083 79.5046 45.5682 83.1588C47.9767 87.2553 50.7443 91.1299 53.8382 94.7368L53.954 94.8526C52.6639 94.0587 48.992 91.9581 48.6778 91.8258C44.427 89.9898 35.115 88.9643 31.7077 92.8678C31.1601 93.5331 30.7588 94.3064 30.5298 95.1371C30.3009 95.9679 30.2495 96.8376 30.3791 97.6895C30.5086 98.5415 30.8161 99.3566 31.2815 100.082C31.747 100.807 32.3599 101.426 33.0805 101.899C36.0577 104.016 40.5566 103.553 43.8481 102.56C47.5696 101.386 53.7721 95.7127 54.351 95.2661C57.5862 98.8606 61.0562 102.237 64.7381 105.372C66.8718 107.208 69.0716 108.994 71.3541 110.764C70.2128 110.119 69.1874 109.54 69.0385 109.474C64.7877 107.638 55.4922 106.613 52.085 110.516C51.5341 111.179 51.1295 111.951 50.8979 112.782C50.6662 113.612 50.6127 114.482 50.7407 115.335C50.8688 116.188 51.1755 117.004 51.6409 117.73C52.1063 118.455 52.7199 119.075 53.4413 119.547C56.435 121.664 60.9174 121.201 64.2254 120.208C67.5334 119.216 73.0081 114.419 74.4471 113.146L77.0273 115.164C81.1954 118.356 85.2973 121.515 89.3496 124.74C90.7555 125.882 92.0953 127.039 93.4515 128.214C92.4426 127.635 91.5825 127.155 91.4337 127.089C87.1829 125.27 77.8874 124.228 74.4802 128.148C73.9293 128.811 73.5247 129.583 73.293 130.414C73.0614 131.244 73.0078 132.114 73.1359 132.967C73.2639 133.819 73.5707 134.635 74.0361 135.361C74.5015 136.087 75.115 136.706 75.8364 137.178C78.8302 139.296 83.3125 138.832 86.6205 137.823C89.9285 136.815 94.8905 132.498 96.5445 131.009C97.8843 132.233 99.2405 133.473 100.498 134.731C101.325 135.607 102.152 136.385 102.979 137.327L105.344 140.023C106.799 141.777 108.288 143.579 109.661 145.333C110.62 146.557 111.513 147.731 112.423 148.905C111.034 147.764 108.271 145.597 108.007 145.415C104.087 142.951 95.0559 140.536 91.0863 143.877C90.4457 144.453 89.9333 145.157 89.5826 145.943C89.2319 146.73 89.0506 147.581 89.0506 148.442C89.0506 149.303 89.2319 150.155 89.5826 150.941C89.9333 151.728 90.4457 152.432 91.0863 153.007C93.7162 155.554 98.2151 155.819 101.639 155.29C105.393 154.711 112.208 150.328 113.051 149.716C114.54 151.667 115.962 153.586 117.286 155.406C121.867 161.74 125.44 167.199 127.888 171.036L128.136 171.433L131.312 169.895L130.815 169.134C128.252 165.313 124.53 159.888 119.75 153.586C118.262 151.585 116.608 149.501 114.904 147.351C116.673 145.419 118.33 143.386 119.866 141.264C123.505 142.686 131.097 142.736 132.072 142.736C132.238 145.2 132.37 147.582 132.453 149.832C132.784 157.655 132.751 164.172 132.684 168.72C132.684 168.902 132.684 169.068 132.684 169.249L136.174 167.595C136.174 163.064 135.992 156.944 135.546 149.699C135.38 147.218 135.165 144.555 134.934 141.826C135.893 141.595 143.783 139.56 146.76 137.178C149.473 135.028 152.317 131.522 152.218 127.866C152.225 127.005 152.05 126.152 151.705 125.363C151.36 124.573 150.853 123.865 150.216 123.285C149.58 122.704 148.828 122.265 148.01 121.994C147.193 121.723 146.327 121.628 145.47 121.714C140.309 122.375 136.009 130.662 135.165 135.227C135.165 135.491 134.884 138.535 134.785 140.338C134.686 139.229 134.587 138.154 134.471 137.03C134.239 134.764 133.941 132.514 133.644 130.083C133.445 128.925 133.247 127.734 133.065 126.543C132.883 125.352 132.569 124.128 132.321 122.921C131.692 120.093 130.931 117.264 130.088 114.436C132.072 114.237 139.118 113.41 142.129 111.674C145.139 109.937 148.464 106.927 148.927 103.288C149.062 102.438 149.018 101.569 148.796 100.738C148.574 99.906 148.179 99.1304 147.638 98.4612C147.097 97.7921 146.421 97.2443 145.654 96.8534C144.887 96.4625 144.047 96.2372 143.187 96.1923C137.994 96.06 132.469 103.602 130.948 107.985C130.848 108.25 130.104 111.508 129.74 113.311C129.211 111.657 128.715 109.921 128.086 108.217C126.432 103.255 124.563 98.4087 122.744 93.4963L121.09 88.9809C121.801 88.9809 130.187 88.1208 133.561 86.1691C136.555 84.5151 139.896 81.4221 140.359 77.7833C140.497 76.933 140.455 76.0631 140.234 75.2305C140.013 74.3978 139.619 73.6212 139.077 72.9514C138.535 72.2816 137.858 71.7337 137.09 71.3437C136.322 70.9536 135.48 70.73 134.62 70.6876C129.426 70.5553 123.902 78.1141 122.38 82.4807C122.264 82.8115 121.206 87.4426 120.991 88.7162C119.8 85.4082 118.642 82.1002 117.683 78.7922C116.301 74.3215 115.196 69.7699 114.375 65.1633C114.705 65.1633 123.472 64.3363 126.929 62.3515C129.922 60.6148 133.263 57.588 133.726 53.9492C133.862 53.0979 133.817 52.2277 133.594 51.395C133.371 50.5623 132.975 49.786 132.432 49.1166C131.889 48.4471 131.211 47.8996 130.443 47.5097C129.674 47.1198 128.831 46.8962 127.971 46.8535C122.794 46.7212 117.269 54.28 115.747 58.6465C115.648 58.9277 114.838 62.5169 114.49 64.2205H114.193C113.51 59.5617 113.244 54.8511 113.399 50.145C113.399 47.5647 113.647 45.0837 113.895 42.6854C115.549 42.6854 123.075 42.6854 126.383 41.263C129.691 39.8405 133.197 37.2272 134.057 33.6711C134.287 32.8381 134.338 31.966 134.207 31.112C134.076 30.2579 133.766 29.4411 133.298 28.7151C132.829 27.989 132.213 27.3701 131.488 26.8988C130.764 26.4274 129.949 26.1144 129.095 25.98C123.951 25.2853 117.633 32.1825 115.648 36.3506C115.532 36.5822 114.689 39.0136 114.093 40.7999C114.209 39.7082 114.325 38.6001 114.474 37.4919C115.003 33.605 115.714 30.082 116.376 26.9559C116.773 25.1861 117.153 23.6479 117.534 22.1097C119.188 21.2827 125.671 17.892 127.904 15.1298C130.137 12.3676 132.089 8.41456 131.212 4.85846C131.03 4.00244 130.667 3.1953 130.147 2.49123C129.627 1.78717 128.963 1.20246 128.198 0.776361C127.434 0.350257 126.587 0.0926194 125.715 0.020734C124.842 -0.0511513 123.965 0.0643818 123.141 0.35958Z" fill="#FFB38E"/>
<path d="M29.3915 80.3141C33.4438 80.1487 41.5484 75.9807 41.565 75.9807C41.5815 75.9807 37.1984 71.4818 36.8841 71.2171C33.2619 68.3392 24.5618 64.8823 20.2449 67.7603C19.5414 68.2563 18.95 68.8948 18.5094 69.6343C18.0688 70.3738 17.7886 71.1978 17.6872 72.0526C17.5859 72.9075 17.6655 73.7741 17.9209 74.5961C18.1763 75.4182 18.6018 76.1773 19.1698 76.8242C21.5019 79.6525 25.9843 80.4465 29.3915 80.3141Z" fill="#FFB38E"/>
<g opacity="0.5">
<path d="M113.101 41.908C113.2 41.908 111.96 35.7386 111.828 35.292C110.405 30.8923 105.063 23.2178 99.8692 23.2178C99.0077 23.2447 98.1614 23.4522 97.3853 23.8271C96.6091 24.2019 95.9203 24.7357 95.3636 25.3938C94.8069 26.0518 94.3947 26.8195 94.1537 27.6471C93.9126 28.4746 93.8482 29.3436 93.9644 30.1977C94.3449 33.8365 97.6198 36.946 100.58 38.7323C104.054 40.899 113.101 41.908 113.101 41.908Z" fill="white"/>
<path d="M123.141 0.35958C118.262 2.11282 115.847 11.1436 115.996 15.7748C115.996 16.1718 116.922 22.3908 117.021 22.3908H117.12C116.723 23.8133 116.31 25.335 115.896 27.022C115.169 30.1316 114.375 33.6381 113.763 37.5415C113.053 41.7229 112.589 45.9423 112.373 50.178C112.118 54.9244 112.278 59.6841 112.853 64.4025C112.859 64.4574 112.859 64.5129 112.853 64.5678C112.224 63.195 110.306 59.4074 110.124 59.1262C107.577 55.2558 100.398 49.2022 95.3867 50.6412C94.5654 50.8944 93.8064 51.3173 93.1589 51.8825C92.5114 52.4478 91.9899 53.1428 91.6281 53.9224C91.2664 54.7021 91.0724 55.549 91.0589 56.4084C91.0453 57.2678 91.2124 58.1205 91.5494 58.9112C92.8726 62.3349 96.8422 64.4521 100.167 65.4114C103.921 66.47 112.291 65.2129 112.952 65.1137C113.669 69.8949 114.697 74.6243 116.029 79.2719C116.806 81.9845 117.683 84.697 118.543 87.393C117.964 86.2187 117.418 85.1767 117.335 85.0443C114.788 81.174 107.61 75.1204 102.598 76.5593C101.777 76.8125 101.018 77.2355 100.37 77.8007C99.7228 78.366 99.2013 79.061 98.8395 79.8406C98.4778 80.6203 98.2839 81.4672 98.2703 82.3266C98.2568 83.186 98.4239 84.0387 98.7609 84.8294C100.084 88.2366 104.054 90.3702 107.378 91.313C110.703 92.2558 117.914 91.313 119.8 91.0815C120.147 92.107 120.494 93.149 120.858 94.1745C122.512 99.1365 124.299 104.098 125.82 108.961C126.366 110.615 126.829 112.402 127.309 114.122C126.796 113.08 126.333 112.203 126.25 112.087C123.72 108.2 116.525 102.163 111.53 103.602C110.707 103.854 109.946 104.275 109.297 104.84C108.648 105.404 108.124 106.099 107.761 106.879C107.397 107.659 107.202 108.506 107.187 109.367C107.173 110.227 107.339 111.08 107.676 111.872C108.999 115.279 112.985 117.413 116.31 118.356C119.634 119.299 126.135 118.472 128.384 118.157C128.831 119.927 129.277 121.714 129.625 123.45C129.823 124.641 130.104 125.766 130.253 126.99L130.749 130.529C130.981 132.795 131.245 135.128 131.411 137.344C131.543 138.899 131.642 140.371 131.742 141.843C131.229 140.189 130.088 136.765 130.088 136.5C128.257 132.861 125.523 129.752 122.148 127.469C121.961 127.055 121.739 126.657 121.487 126.279C121.015 125.558 120.397 124.944 119.673 124.477C118.949 124.009 118.135 123.7 117.284 123.567C116.433 123.434 115.563 123.482 114.731 123.707C113.9 123.932 113.124 124.329 112.456 124.873C108.536 128.263 109.512 137.559 111.315 141.826C111.414 142.074 112.969 144.688 113.829 146.309L111.728 143.695C110.273 141.925 108.784 140.205 107.196 138.353C106.38 137.493 105.57 136.616 104.765 135.723C103.971 134.83 103.028 133.986 102.152 133.093C100.068 131.092 97.8677 129.157 95.5356 127.271C97.0903 125.997 102.499 121.432 104.054 118.323C105.608 115.213 106.717 110.863 105.096 107.572C104.739 106.789 104.222 106.089 103.578 105.519C102.934 104.949 102.178 104.52 101.357 104.261C100.537 104.003 99.6711 103.919 98.8164 104.016C97.9616 104.114 97.1369 104.39 96.3957 104.826C91.996 107.572 91.5494 116.917 92.6907 121.366C92.6907 121.647 93.9477 124.79 94.6259 126.494C93.2531 125.352 91.8968 124.228 90.4743 123.186C86.3724 120.026 82.2043 116.95 77.9039 113.857L74.0501 110.996C74.5959 110.549 81.1458 105.256 82.899 101.766C84.4538 98.6733 85.562 94.3068 83.941 91.0319C83.5866 90.2451 83.0702 89.542 82.4256 88.9684C81.7809 88.3947 81.0226 87.9635 80.2 87.7029C79.3774 87.4422 78.5091 87.358 77.6518 87.4556C76.7944 87.5533 75.9673 87.8307 75.2245 88.2697C70.8414 91.0318 70.3948 100.36 71.536 104.81C71.6187 105.14 73.3224 109.639 73.8186 110.764C70.9902 108.663 68.195 106.546 65.5486 104.347C61.929 101.383 58.5037 98.1896 55.2938 94.7864C55.5419 94.588 62.406 89.0801 64.1923 85.524C65.747 82.431 66.8552 78.0645 65.2343 74.773C64.8762 73.9937 64.3587 73.2981 63.7152 72.7311C63.0717 72.1641 62.3165 71.7383 61.4983 71.4811C60.6801 71.224 59.8171 71.1412 58.9649 71.2382C58.1127 71.3351 57.2904 71.6096 56.5508 72.0439C52.1512 74.8061 51.7211 84.1512 52.8458 88.5839C52.9285 88.8816 54.2187 92.322 54.8803 93.9264L54.6322 94.0917C51.4901 90.5785 48.6672 86.7924 46.1968 82.7784C44.8239 80.5951 43.6165 78.4118 42.4918 76.2782C43.8812 75.385 50.1498 71.3162 52.1181 68.2066C54.0863 65.0971 55.5915 61.0779 54.3344 57.6376C54.0654 56.8294 53.631 56.0861 53.0589 55.455C52.4869 54.8239 51.7897 54.3188 51.0118 53.9719C50.2339 53.6249 49.3923 53.4437 48.5405 53.4398C47.6888 53.4359 46.8455 53.6094 46.0644 53.9492C41.4002 56.1986 39.9281 65.5272 40.5732 70.026C40.5732 70.2741 41.2348 72.7717 41.731 74.5745C41.2348 73.6152 40.7055 72.6063 40.2589 71.6635C38.6049 68.1405 37.199 64.7994 36.0412 61.8388C35.3961 60.1848 34.8338 58.5308 34.3872 57.1414C35.2804 55.5701 38.8365 49.136 39.1673 45.5634C39.4981 41.9908 38.9688 37.6407 36.2728 35.1597C35.6575 34.5552 34.9219 34.0869 34.1139 33.785C33.3059 33.4832 32.4434 33.3546 31.5825 33.4076C30.7216 33.4607 29.8814 33.6941 29.1165 34.0928C28.3516 34.4916 27.6791 35.0466 27.1427 35.7221C24.0497 39.8736 27.0104 48.7556 29.6898 52.5267C29.9214 52.8575 34.1226 57.4887 34.1722 57.4887V57.3895C34.6353 58.7954 35.1315 60.284 35.7269 61.9215C36.8351 64.9152 38.1087 68.2894 39.7462 71.8455C41.4643 75.727 43.4083 79.5046 45.5682 83.1588C47.9767 87.2553 50.7443 91.1299 53.8382 94.7368L53.954 94.8526C52.6639 94.0587 48.992 91.9581 48.6778 91.8258C44.427 89.9898 35.115 88.9643 31.7077 92.8678C31.1601 93.5331 30.7588 94.3064 30.5298 95.1371C30.3009 95.9679 30.2495 96.8376 30.3791 97.6895C30.5086 98.5415 30.8161 99.3566 31.2815 100.082C31.747 100.807 32.3599 101.426 33.0805 101.899C36.0577 104.016 40.5566 103.553 43.8481 102.56C47.5696 101.386 53.7721 95.7127 54.351 95.2661C57.5862 98.8606 61.0562 102.237 64.7381 105.372C66.8718 107.208 69.0716 108.994 71.3541 110.764C70.2128 110.119 69.1874 109.54 69.0385 109.474C64.7877 107.638 55.4922 106.613 52.085 110.516C51.5341 111.179 51.1295 111.951 50.8979 112.782C50.6662 113.612 50.6127 114.482 50.7407 115.335C50.8688 116.188 51.1755 117.004 51.6409 117.73C52.1063 118.455 52.7199 119.075 53.4413 119.547C56.435 121.664 60.9174 121.201 64.2254 120.208C67.5334 119.216 73.0081 114.419 74.4471 113.146L77.0273 115.164C81.1954 118.356 85.2973 121.515 89.3496 124.74C90.7555 125.882 92.0953 127.039 93.4515 128.214C92.4426 127.635 91.5825 127.155 91.4337 127.089C87.1829 125.27 77.8874 124.228 74.4802 128.148C73.9293 128.811 73.5247 129.583 73.293 130.414C73.0614 131.244 73.0078 132.114 73.1359 132.967C73.2639 133.819 73.5707 134.635 74.0361 135.361C74.5015 136.087 75.115 136.706 75.8364 137.178C78.8302 139.296 83.3125 138.832 86.6205 137.823C89.9285 136.815 94.8905 132.498 96.5445 131.009C97.8843 132.233 99.2405 133.473 100.498 134.731C101.325 135.607 102.152 136.385 102.979 137.327L105.344 140.023C106.799 141.777 108.288 143.579 109.661 145.333C110.62 146.557 111.513 147.731 112.423 148.905C111.034 147.764 108.271 145.597 108.007 145.415C104.087 142.951 95.0559 140.536 91.0863 143.877C90.4457 144.453 89.9333 145.157 89.5826 145.943C89.2319 146.73 89.0506 147.581 89.0506 148.442C89.0506 149.303 89.2319 150.155 89.5826 150.941C89.9333 151.728 90.4457 152.432 91.0863 153.007C93.7162 155.554 98.2151 155.819 101.639 155.29C105.393 154.711 112.208 150.328 113.051 149.716C114.54 151.667 115.962 153.586 117.286 155.406C121.867 161.74 125.44 167.199 127.888 171.036L128.136 171.433L131.312 169.895L130.815 169.134C128.252 165.313 124.53 159.888 119.75 153.586C118.262 151.585 116.608 149.501 114.904 147.351C116.673 145.419 118.33 143.386 119.866 141.264C123.505 142.686 131.097 142.736 132.072 142.736C132.238 145.2 132.37 147.582 132.453 149.832C132.784 157.655 132.751 164.172 132.684 168.72C132.684 168.902 132.684 169.068 132.684 169.249L136.174 167.595C136.174 163.064 135.992 156.944 135.546 149.699C135.38 147.218 135.165 144.555 134.934 141.826C135.893 141.595 143.783 139.56 146.76 137.178C149.473 135.028 152.317 131.522 152.218 127.866C152.225 127.005 152.05 126.152 151.705 125.363C151.36 124.573 150.853 123.865 150.216 123.285C149.58 122.704 148.828 122.265 148.01 121.994C147.193 121.723 146.327 121.628 145.47 121.714C140.309 122.375 136.009 130.662 135.165 135.227C135.165 135.491 134.884 138.535 134.785 140.338C134.686 139.229 134.587 138.154 134.471 137.03C134.239 134.764 133.941 132.514 133.644 130.083C133.445 128.925 133.247 127.734 133.065 126.543C132.883 125.352 132.569 124.128 132.321 122.921C131.692 120.093 130.931 117.264 130.088 114.436C132.072 114.237 139.118 113.41 142.129 111.674C145.139 109.937 148.464 106.927 148.927 103.288C149.062 102.438 149.018 101.569 148.796 100.738C148.574 99.906 148.179 99.1304 147.638 98.4612C147.097 97.7921 146.421 97.2443 145.654 96.8534C144.887 96.4625 144.047 96.2372 143.187 96.1923C137.994 96.06 132.469 103.602 130.948 107.985C130.848 108.25 130.104 111.508 129.74 113.311C129.211 111.657 128.715 109.921 128.086 108.217C126.432 103.255 124.563 98.4087 122.744 93.4963L121.09 88.9809C121.801 88.9809 130.187 88.1208 133.561 86.1691C136.555 84.5151 139.896 81.4221 140.359 77.7833C140.497 76.933 140.455 76.0631 140.234 75.2305C140.013 74.3978 139.619 73.6212 139.077 72.9514C138.535 72.2816 137.858 71.7337 137.09 71.3437C136.322 70.9536 135.48 70.73 134.62 70.6876C129.426 70.5553 123.902 78.1141 122.38 82.4807C122.264 82.8115 121.206 87.4426 120.991 88.7162C119.8 85.4082 118.642 82.1002 117.683 78.7922C116.301 74.3215 115.196 69.7699 114.375 65.1633C114.705 65.1633 123.472 64.3363 126.929 62.3515C129.922 60.6148 133.263 57.588 133.726 53.9492C133.862 53.0979 133.817 52.2277 133.594 51.395C133.371 50.5623 132.975 49.786 132.432 49.1166C131.889 48.4471 131.211 47.8996 130.443 47.5097C129.674 47.1198 128.831 46.8962 127.971 46.8535C122.794 46.7212 117.269 54.28 115.747 58.6465C115.648 58.9277 114.838 62.5169 114.49 64.2205H114.193C113.51 59.5617 113.244 54.8511 113.399 50.145C113.399 47.5647 113.647 45.0837 113.895 42.6854C115.549 42.6854 123.075 42.6854 126.383 41.263C129.691 39.8405 133.197 37.2272 134.057 33.6711C134.287 32.8381 134.338 31.966 134.207 31.112C134.076 30.2579 133.766 29.4411 133.298 28.7151C132.829 27.989 132.213 27.3701 131.488 26.8988C130.764 26.4274 129.949 26.1144 129.095 25.98C123.951 25.2853 117.633 32.1825 115.648 36.3506C115.532 36.5822 114.689 39.0136 114.093 40.7999C114.209 39.7082 114.325 38.6001 114.474 37.4919C115.003 33.605 115.714 30.082 116.376 26.9559C116.773 25.1861 117.153 23.6479 117.534 22.1097C119.188 21.2827 125.671 17.892 127.904 15.1298C130.137 12.3676 132.089 8.41456 131.212 4.85846C131.03 4.00244 130.667 3.1953 130.147 2.49123C129.627 1.78717 128.963 1.20246 128.198 0.776361C127.434 0.350257 126.587 0.0926194 125.715 0.020734C124.842 -0.0511513 123.965 0.0643818 123.141 0.35958Z" fill="white"/>
<path d="M29.3915 80.3141C33.4438 80.1487 41.5484 75.9807 41.565 75.9807C41.5815 75.9807 37.1984 71.4818 36.8841 71.2171C33.2619 68.3392 24.5618 64.8823 20.2449 67.7603C19.5414 68.2563 18.95 68.8948 18.5094 69.6343C18.0688 70.3738 17.7886 71.1978 17.6872 72.0526C17.5859 72.9075 17.6655 73.7741 17.9209 74.5961C18.1763 75.4182 18.6018 76.1773 19.1698 76.8242C21.5019 79.6525 25.9843 80.4465 29.3915 80.3141Z" fill="white"/>
</g>
<path d="M76.7125 181.787C76.7125 181.787 101.308 122.507 115.069 125.088C128.83 127.668 91.4662 219.597 91.4662 219.597C91.4662 219.597 134.735 137.972 164.242 137.972C193.75 137.972 153.425 228.181 116.061 258.251C116.061 258.251 175.059 194.671 209.496 208.433C243.932 222.194 140.64 286.617 140.64 286.617C140.64 286.617 200.63 267.712 193.75 282.317C186.869 296.922 168.228 299.502 168.228 299.502L236.042 302.942H0L53.1099 297.782C53.1099 297.782 -1.96826 270.292 12.7523 259.111C27.4729 247.93 59.9575 271.996 59.9575 271.996C59.9575 271.996 3.90344 210.136 14.7206 186.947C25.5378 163.758 73.7353 229.042 73.7353 229.042C73.7353 229.042 34.3867 145.713 42.3093 131.092C50.232 116.47 76.7125 181.787 76.7125 181.787Z" fill="#FFB38E"/>
<path opacity="0.4" d="M76.7125 181.787C76.7125 181.787 101.307 122.507 115.069 125.088C128.83 127.668 91.4662 219.597 91.4662 219.597C91.4662 219.597 134.735 137.972 164.242 137.972C193.75 137.972 153.425 228.181 116.061 258.251C116.061 258.251 175.059 194.671 209.496 208.433C243.932 222.194 140.64 286.617 140.64 286.617C140.64 286.617 200.63 267.712 193.75 282.317C186.869 296.922 168.228 299.502 168.228 299.502L236.042 302.942H0L53.1099 297.782C53.1099 297.782 -1.96826 270.292 12.7523 259.111C27.4729 247.93 59.9575 271.996 59.9575 271.996C59.9575 271.996 3.90344 210.136 14.7206 186.947C25.5378 163.758 73.7353 229.042 73.7353 229.042C73.7353 229.042 34.3867 145.713 42.3093 131.092C50.232 116.47 76.7125 181.787 76.7125 181.787Z" fill="white"/>
<path d="M68.8552 184.913C90.4895 248.84 90.4895 294.077 90.4895 294.077C90.4895 294.077 64.9187 295.07 38.3555 275.403" stroke="#263238" stroke-linecap="round" stroke-linejoin="round"/>
<path d="M79.6738 219.333C84.1266 200.222 90.0433 181.482 97.3716 163.279" stroke="#263238" stroke-linecap="round" stroke-linejoin="round"/>
<path d="M143.599 181.969L88.5213 263.594C88.5213 263.594 51.1409 232.168 38.3555 214.42" stroke="#263238" stroke-linecap="round" stroke-linejoin="round"/>
<path d="M89.498 283.26C89.498 283.26 147.52 255.721 171.139 239.991" stroke="#263238" stroke-linecap="round" stroke-linejoin="round"/>
</svg>
