<svg width="16" height="17" viewBox="0 0 16 17" fill="none" xmlns="http://www.w3.org/2000/svg">
<path d="M2 4.5C2 3.96957 2.21071 3.46086 2.58579 3.08579C2.96086 2.71071 3.46957 2.5 4 2.5H5.5C5.63261 2.5 5.75979 2.55268 5.85355 2.64645C5.94732 2.74021 6 2.86739 6 3C6 3.13261 5.94732 3.25979 5.85355 3.35355C5.75979 3.44732 5.63261 3.5 5.5 3.5H4C3.73478 3.5 3.48043 3.60536 3.29289 3.79289C3.10536 3.98043 3 4.23478 3 4.5V6C3 6.13261 2.94732 6.25979 2.85355 6.35355C2.75979 6.44732 2.63261 6.5 2.5 6.5C2.36739 6.5 2.24021 6.44732 2.14645 6.35355C2.05268 6.25979 2 6.13261 2 6V4.5ZM2 12.5C2 13.0304 2.21071 13.5391 2.58579 13.9142C2.96086 14.2893 3.46957 14.5 4 14.5H5.5C5.63261 14.5 5.75979 14.4473 5.85355 14.3536C5.94732 14.2598 6 14.1326 6 14C6 13.8674 5.94732 13.7402 5.85355 13.6464C5.75979 13.5527 5.63261 13.5 5.5 13.5H4C3.73478 13.5 3.48043 13.3946 3.29289 13.2071C3.10536 13.0196 3 12.7652 3 12.5V11C3 10.8674 2.94732 10.7402 2.85355 10.6464C2.75979 10.5527 2.63261 10.5 2.5 10.5C2.36739 10.5 2.24021 10.5527 2.14645 10.6464C2.05268 10.7402 2 10.8674 2 11V12.5ZM12 2.5C12.5304 2.5 13.0391 2.71071 13.4142 3.08579C13.7893 3.46086 14 3.96957 14 4.5V6C14 6.13261 13.9473 6.25979 13.8536 6.35355C13.7598 6.44732 13.6326 6.5 13.5 6.5C13.3674 6.5 13.2402 6.44732 13.1464 6.35355C13.0527 6.25979 13 6.13261 13 6V4.5C13 4.23478 12.8946 3.98043 12.7071 3.79289C12.5196 3.60536 12.2652 3.5 12 3.5H10.5C10.3674 3.5 10.2402 3.44732 10.1464 3.35355C10.0527 3.25979 10 3.13261 10 3C10 2.86739 10.0527 2.74021 10.1464 2.64645C10.2402 2.55268 10.3674 2.5 10.5 2.5H12ZM14 12.5C14 13.0304 13.7893 13.5391 13.4142 13.9142C13.0391 14.2893 12.5304 14.5 12 14.5H10.5C10.3674 14.5 10.2402 14.4473 10.1464 14.3536C10.0527 14.2598 10 14.1326 10 14C10 13.8674 10.0527 13.7402 10.1464 13.6464C10.2402 13.5527 10.3674 13.5 10.5 13.5H12C12.2652 13.5 12.5196 13.3946 12.7071 13.2071C12.8946 13.0196 13 12.7652 13 12.5V11C13 10.8674 13.0527 10.7402 13.1464 10.6464C13.2402 10.5527 13.3674 10.5 13.5 10.5C13.6326 10.5 13.7598 10.5527 13.8536 10.6464C13.9473 10.7402 14 10.8674 14 11V12.5ZM5.5 9.5C5.5 8.83696 5.76339 8.20107 6.23223 7.73223C6.70107 7.26339 7.33696 7 8 7C8.66304 7 9.29893 7.26339 9.76777 7.73223C10.2366 8.20107 10.5 8.83696 10.5 9.5C10.5 10.163 10.2366 10.7989 9.76777 11.2678C9.29893 11.7366 8.66304 12 8 12C7.33696 12 6.70107 11.7366 6.23223 11.2678C5.76339 10.7989 5.5 10.163 5.5 9.5ZM3.314 8.464C3.43706 8.5133 3.57467 8.51171 3.69656 8.45958C3.81845 8.40745 3.91465 8.30904 3.964 8.186L3.969 8.176L3.997 8.116C4.02367 8.06 4.069 7.98 4.133 7.876C4.31149 7.59645 4.52675 7.34218 4.773 7.12C5.376 6.573 6.384 6 8 6C9.616 6 10.624 6.573 11.226 7.12C11.531 7.397 11.738 7.673 11.866 7.877C11.9266 7.97345 11.9817 8.07328 12.031 8.176C12.031 8.176 12.275 8.628 12.686 8.464C12.809 8.41465 12.9074 8.31845 12.9596 8.19656C13.0117 8.07467 13.0133 7.93706 12.964 7.814V7.812L12.962 7.808L12.957 7.798C12.9385 7.7543 12.9185 7.71128 12.897 7.669C12.8402 7.55714 12.7781 7.44802 12.711 7.342C12.4847 6.98637 12.2116 6.6628 11.899 6.38C11.125 5.677 9.882 5 7.999 5C6.117 5 4.874 5.677 4.101 6.38C3.78807 6.66274 3.51461 6.98631 3.288 7.342C3.19623 7.48852 3.11406 7.64084 3.042 7.798L3.038 7.808L3.036 7.813C2.9867 7.93606 2.98829 8.07467 3.04042 8.19656C3.09255 8.31845 3.19096 8.41465 3.314 8.464Z" fill="#FF5300"/>
</svg>
